<svg width="7615" height="5752" viewBox="0 0 7615 5752" fill="none" xmlns="http://www.w3.org/2000/svg">
<path d="M2325.69 3682.85C2374.55 3662.42 2416.06 3627.43 2460.04 3598.59L2601.46 3509.53L2725.7 3414.82L2901.41 3274.59L2968.87 3211.4L3086.1 3109.47L3132.42 3062.19L3180.99 3024.16L3329.13 2877.07L3498.98 2699.73L3556.11 2637.03L3613.17 2585.08C3673.98 2525.92 3759.54 2447.25 3845.95 2429.3C3886.25 2420.88 3942.68 2452.41 3973.23 2476.86C4045.92 2534.9 4138.69 2633.21 4197.09 2706.16L4294.88 2801.16L4400.1 2925.34L4459.92 2977.15L4578.85 3104.95L4797.35 3329.44L4946.05 3481.05C4961.18 3497.8 4991.52 3537.1 5013.29 3541.76C5035.43 3546.57 5078.06 3516.32 5097.51 3504.3L5288.64 3369.09C5461.38 3245.82 5653.99 3063.17 5796.33 2905.34L5990.43 2703.83C6021.33 2676.19 6053.86 2643.53 6094.51 2630.88C6147.55 2614.34 6203.62 2658.66 6240.03 2692.8L6459.8 2932.41L6515.73 2990.16L6680.77 3166.87C6879.11 3378.98 7089.4 3578.8 7310.72 3766.75L7515.14 3936.67C7587.76 3999.86 7593.42 3991.3 7593.56 4057.46V4248.31L7515.78 4198.83L7522.85 4184.69C7483.75 4167.73 7453.41 4135.78 7421.88 4107.79L7261.22 3968.47L7105.59 3831.28L6865.25 3612.09L6590.4 3328.3L6384.78 3103.25L6324.82 3047.7C6291.44 3027.55 6260.19 3072.36 6243.29 3096.18L6204.47 3159.16L6127.96 3279.96C6112.69 3305.97 6092.53 3340.67 6101.3 3371.84C6113.39 3414.47 6157.8 3445 6193.51 3466.56L6410.73 3588.84C6475.36 3636.97 6489.64 3683.48 6530.79 3746.46L6609.49 3852.48L6708.84 3986.78C6719.16 4001.2 6741.22 4028.13 6733.52 4047.29C6720.36 4079.73 6652.34 4037.32 6634.88 4026.58L6539.98 3975.12L6490.77 3956.03L6405.64 3909.6C6375.16 3893.55 6332.59 3881.89 6313.71 3852.48L6292.5 3859.55L6364.84 4015.05L6556.96 4318.99L6625.68 4424.38C6636.22 4438.51 6646.69 4456.32 6667.26 4449.11C6678.5 4445.23 6731.75 4396.67 6745.04 4385.5C6826.92 4317.22 6908.95 4217.06 7020.81 4208.16C7088.62 4202.79 7150.63 4256.79 7200.55 4296.44L7487.49 4516.97C7509.7 4534.36 7580.12 4588.36 7589.53 4610.84C7594.55 4622.85 7593.56 4644.9 7593.56 4658.26V5018.74C7551.2 5000.72 7517.47 4967.78 7480.42 4941.06L7367.29 4860.7L7225.59 4746.05L7141.02 4680.46C7127.37 4670.63 7111.11 4658.26 7094.56 4670.35C7076.67 4683.36 7080.49 4710.29 7084.17 4728.95C7091.38 4764.99 7125.88 4828.32 7145.19 4861.26C7211.3 4973.93 7301.39 5084.97 7381.36 5188.38C7417.35 5234.89 7476.89 5298.08 7480.42 5358.02C7409.15 5355.83 7362.97 5312.71 7307.75 5274.54L7027.88 5086.46C6983.12 5058.54 6905.27 5000.93 6851.11 5008.85C6779.12 5019.45 6747.66 5085.61 6709.69 5137.7L6653.54 5222.52C6610.06 5282.18 6549.67 5351.59 6496.36 5402.34C6439.44 5456.55 6430.88 5485.1 6349.07 5485.25H5161.15H4814.67C4775.57 5485.25 4684.21 5490.9 4652.04 5478.18L4900.16 5358.09L5158.18 5201.53L5366.21 5055C5410.33 5021.99 5475.95 4970.61 5528.84 4956.9C5621.33 4932.86 5689.63 4979.02 5769.25 5020.86C5812.24 5043.48 5860.61 5073.73 5910.67 5057.76C6005.63 5027.44 6135.6 4850.24 6228.86 4813.76C6189.27 4763.44 6062.55 4700.67 6002.59 4657.2L5748.67 4462.83C5692.39 4416.03 5640.49 4366.34 5578.33 4326.69C5555.21 4311.92 5476.72 4274.32 5451.06 4266.9C5407.71 4254.38 5392.79 4262.58 5345.28 4230.28C5271.95 4180.52 5330.43 4119.95 5318.33 4080.15C5312.54 4061 5243.81 4016.4 5224.79 4001.69L5072.19 3879.7L5023.83 3856.16L4975.32 3816.01L4841.61 3734.94C4824.71 3716.63 4836.8 3689 4841.61 3668.71L4652.04 3514.34C4560.54 3446.77 4493.37 3424.86 4455.54 3397.79C4414.24 3368.38 4382.63 3312.4 4327.41 3302.36C4294.18 3296.36 4258.68 3337.56 4246.16 3365.06C4239.45 3379.76 4240.15 3391.35 4230.33 3407.19C4201.69 3452.99 4183.87 3447.55 4142.93 3456.31C4126.67 3459.7 4118.75 3465.78 4100.79 3462.81C4086.57 3460.48 4070.45 3449.88 4058.08 3442.53C4060.27 3470.38 4065.5 3480.41 4073.14 3506.14L4089.26 3562.69C4118.25 3626.02 4207.35 3716.21 4257.13 3767.67C4278.41 3789.65 4301.04 3807.46 4319.56 3831.92C4358.31 3883.3 4394.8 3971.65 4468.19 3972.08C4483.25 3972.15 4494.78 3969.39 4508.5 3978.09C4536.22 3995.55 4567.96 4074.29 4569.17 4106.94C4570.44 4142.71 4550.99 4152.6 4547.39 4177.62L4561.88 4269.58C4565.14 4280.25 4569.59 4288.52 4576.94 4296.94C4612.09 4337.08 4664.62 4304.85 4701.25 4310.01C4729.89 4314.04 4746.01 4348.32 4765.17 4368.47L4758.1 4389.67C4795.79 4408.26 4831.5 4479.58 4855.68 4515.7L5001.48 4728.66C5024.75 4764.15 5044.69 4779.62 5062.15 4820.83L5055.08 4827.9C5002.4 4812.49 4914.23 4734.11 4862.96 4700.67C4684.85 4584.54 4510.27 4456.25 4347.99 4318.99C4363.61 4275.31 4392.82 4267.6 4425.34 4237.07C4436.3 4226.75 4452.92 4211.97 4442.31 4195.93C4431.14 4178.19 4410.57 4189.5 4397.2 4195.93C4351.17 4220.03 4321.97 4233.39 4270.21 4221.66L4185.35 4201.66C4142.29 4182.99 4108.49 4149.42 4071.94 4121.22C4027.6 4087.08 3924.65 4020.99 3874.23 4000.92L3867.16 4007.99C3880.24 4035.34 3936.6 4136.42 3937.09 4156.42C3938.3 4199.32 3883.42 4235.37 3853.02 4191.76H3838.88L3770.36 4264.49L3669.17 4354.33L3619.68 4311.92C3617.34 4331.36 3609.28 4395.61 3601.01 4409.67C3589.06 4429.75 3543.1 4465.79 3523.65 4482.41L3442.9 4546.02C3389.73 4589.77 3345.39 4637.55 3273.2 4644.13C3281.19 4569.06 3374.39 4458.3 3421.69 4396.74L3448.7 4410.88C3442.06 4393.13 3437.11 4387.9 3448.7 4368.54C3455.84 4352.92 3479.11 4339.56 3471.26 4319.84C3468.01 4311.57 3454.29 4300.68 3449.27 4283.36C3444.32 4266.4 3451.18 4254.6 3442.62 4234.17L3425.51 4205.9C3401.68 4163.49 3398.92 4134.93 3421.69 4092.8L3326.73 4014.14L3293.07 3971.44L3308.56 3923.17C3255.88 3887.83 3268.82 3787.53 3273.2 3732.32C3180.85 3769.86 3176.61 3790.64 3108.45 3848.6C3081.58 3871.43 3057.61 3889.59 3033.21 3916.1C3007.76 3943.66 2973.11 3991.09 2976.22 4029.19C2916.75 4051.31 2931.18 4019.08 2863.72 4081.71C2816.91 4125.18 2803.97 4174.09 2735.81 4191.76C2761.9 4249.58 2795.56 4261.31 2834.02 4304.85C2843.29 4315.38 2860.47 4334.4 2851.35 4349.52C2839.33 4369.6 2806.66 4345.99 2778.23 4354.47C2759.78 4359.98 2745.49 4376.03 2717.56 4373.06C2689.99 4370.09 2673.87 4347.4 2644.17 4355.32C2622.88 4360.97 2589.01 4398.22 2573.81 4415.19C2355.32 4659.75 2096.03 4919.93 1846.85 5133.67L1653.95 5285.92C1616.12 5315.82 1589.04 5348.19 1540.81 5358.02C1544.77 5286.77 1605.16 5219.76 1641.65 5160.11L1721.76 5025.81L1780.38 4932.72L1830.3 4834.97C1869.26 4761.18 1901.43 4716.72 1908.5 4629.99L1562.03 4848.61L1498.39 4882.96L1158.98 5089.43L805.435 5296.6L543.809 5440.65C489.434 5466.8 481.585 5484.4 416.532 5485.25H268.042L348.509 5386.29C355.793 5375.55 369.864 5353.14 364.136 5339.71C353.883 5315.47 291.517 5349.96 275.113 5356.6L20.5582 5464.04V5075.29C20.6997 4993.3 38.9427 5011.18 154.907 4926.01L437.745 4732.06C498.131 4690.42 591.185 4628.01 664.016 4616.91C713.371 4609.35 753.605 4615.71 798.364 4637.91C859.669 4668.3 916.732 4720.18 989.28 4693.96C1032.84 4678.2 1098.24 4628.72 1137.77 4601.43L1332.79 4467.42C1384.12 4427.7 1440.41 4366.7 1505.46 4354.33C1505.81 4314.32 1526.89 4312.77 1553.75 4289.16C1623.33 4228.09 1608.48 4243.29 1682.23 4195.29C1761.08 4144.05 1837.3 4075.91 1907.23 4012.65L1965.36 3955.68L2042.85 3904.44C2092.7 3877.01 2095.46 3894.82 2141.85 3824.21C2123.39 3817.78 2105.29 3808.38 2085.28 3809.86C2057.63 3811.91 2036.14 3829.3 2000.43 3814.74C1963.94 3799.83 1948.6 3758.55 1920.81 3737.13C1895 3717.2 1839 3713.03 1866.08 3668.71C1808.17 3629.06 1779.46 3580.36 1734.7 3528.55C1681.03 3466.35 1620.29 3409.38 1557.93 3356.01L1378.82 3221.29L1242.63 3114.42C1150.36 3042.18 1104.04 3010.8 1024.63 2919.48C1030.93 2997.16 1073.21 3100.71 1103.41 3173.93L1147.88 3287.03L1252.67 3506.14C1283.29 3567.42 1348.06 3683.84 1356.97 3746.46C1310.02 3762.01 1299.13 3745.05 1258.26 3722.78L1040.54 3558.02C1017.78 3540.35 961.774 3499.71 932.854 3504.16C905.63 3508.33 897.216 3531.23 898.135 3555.62C899.479 3590.54 928.187 3663.69 942.894 3696.98C988.997 3801.66 1044.01 3893.13 1108 3987.42L1157.14 4060.43L1204.52 4126.17C1235.49 4168.43 1255.57 4178.19 1236.76 4234.17C1131.26 4198.97 1103.62 4173.95 1010.49 4132.81L840.79 4068.42L734.725 4028.7C720.725 4023.25 697.603 4009.19 683.319 4011.94C664.086 4015.62 641.884 4043.33 628.166 4056.9L494.313 4191.76C387.4 4298.63 300.71 4373.41 176.119 4459.01C135.391 4486.93 65.5296 4537.11 20.5582 4552.24V3612.16C20.6289 3594 19.144 3572.72 27.6999 3556.25C36.3265 3539.64 62.4183 3519.64 76.5603 3504.87L162.048 3414.25L410.027 3171.95L593.306 2966.98L700.997 2834.87L854.932 2654.98C886.539 2619.5 954.986 2554.05 1003.42 2552.35C1057.73 2550.45 1087.57 2579.28 1123.56 2615.54L1205.37 2712.45L1280.04 2796.35L1344.31 2875.87L1512.74 3045.43L1587.41 3106.29L1776.14 3269.92L2008.63 3460.27L2236.74 3677.76C2262.05 3703.06 2308.23 3737.77 2325.69 3682.85ZM4560.12 4382.6L4574.26 4403.81V4396.74L4560.12 4382.6ZM4545.97 4410.88H4538.9L4545.97 4417.94V4410.88Z" fill="#D9D9D9" fill-opacity="0.1" stroke="#2A2DFF" stroke-opacity="0.63" stroke-width="41"/>
<g filter="url(#filter0_d_2037_26)">
<path d="M6647.85 305.65L5260.12 2858.61C5256.89 2864.55 5256.88 2871.73 5260.11 2877.68L6647.66 5440.82C6657.58 5459.15 6644.31 5481.42 6623.46 5481.42H6007.58C5999.3 5481.42 5991.45 5477.69 5986.23 5471.26L3880.97 2880.78C3874.99 2873.42 3875 2862.87 3880.99 2855.52L5986.54 275.12C5991.76 268.716 5999.59 265 6007.86 265L6623.68 265C6644.55 265 6657.82 287.318 6647.85 305.65Z" fill="white" fill-opacity="0.65" stroke="white" stroke-width="30"/>
<path d="M966.275 310.725L2354.01 2863.68C2357.24 2869.63 2357.24 2876.8 2354.02 2882.75L966.468 5445.89C956.545 5464.22 969.819 5486.5 990.666 5486.5H1606.55C1614.83 5486.5 1622.67 5482.77 1627.9 5476.34L3733.16 2885.85C3739.14 2878.49 3739.13 2867.94 3733.14 2860.59L1627.59 280.195C1622.37 273.791 1614.54 270.075 1606.27 270.075L990.45 270.075C969.583 270.075 956.31 292.392 966.275 310.725Z" fill="white" fill-opacity="0.65" stroke="white" stroke-width="30"/>
</g>
<defs>
<filter id="filter0_d_2037_26" x="697.875" y="0" width="6218.38" height="5751.5" filterUnits="userSpaceOnUse" color-interpolation-filters="sRGB">
<feFlood flood-opacity="0" result="BackgroundImageFix"/>
<feColorMatrix in="SourceAlpha" type="matrix" values="0 0 0 0 0 0 0 0 0 0 0 0 0 0 0 0 0 0 127 0" result="hardAlpha"/>
<feOffset/>
<feGaussianBlur stdDeviation="125"/>
<feComposite in2="hardAlpha" operator="out"/>
<feColorMatrix type="matrix" values="0 0 0 0 1 0 0 0 0 1 0 0 0 0 1 0 0 0 0.69 0"/>
<feBlend mode="normal" in2="BackgroundImageFix" result="effect1_dropShadow_2037_26"/>
<feBlend mode="normal" in="SourceGraphic" in2="effect1_dropShadow_2037_26" result="shape"/>
</filter>
</defs>
</svg>
